<svg xmlns="http://www.w3.org/2000/svg" viewBox="0 0 478.72 108.14"><defs><style>.cls-1{fill:#fff;}.cls-2{fill:#ff4631;}.cls-3{fill:#2f5dfb;}.cls-4{fill:#1bb778;}.cls-5{fill:#feba2b;}.cls-6{fill:#ff7f2e;}.cls-7{fill:#fcee21;}.cls-8{fill:#29abe2;}</style></defs><g id="Capa_2" data-name="Capa 2"><g id="Capa_1-2" data-name="Capa 1"><path class="cls-1" d="M145.24,74.31a16.28,16.28,0,0,1-6.71-5.09,13.55,13.55,0,0,1-2.71-7.51h8a7.84,7.84,0,0,0,3.27,5.68,12.43,12.43,0,0,0,7.68,2.21,11.18,11.18,0,0,0,6.95-1.95,6,6,0,0,0,2.55-4.92,4.85,4.85,0,0,0-2.72-4.54,38,38,0,0,0-8.4-2.93,61.69,61.69,0,0,1-8.44-2.75,15,15,0,0,1-5.59-4.16,10.82,10.82,0,0,1-2.34-7.25,11,11,0,0,1,2.12-6.53,14.39,14.39,0,0,1,6-4.71,21.61,21.61,0,0,1,8.9-1.74q7.72,0,12.47,3.9a14.07,14.07,0,0,1,5.09,10.69h-7.72a8,8,0,0,0-2.92-5.85,11,11,0,0,0-7.17-2.21,11.12,11.12,0,0,0-6.62,1.78,5.52,5.52,0,0,0-2.46,4.67A5.12,5.12,0,0,0,146,44.87a10.92,10.92,0,0,0,3.73,2.38,63.84,63.84,0,0,0,6.23,2,69.75,69.75,0,0,1,8.15,2.67,14.23,14.23,0,0,1,5.38,4,10.49,10.49,0,0,1,2.33,6.87,11.74,11.74,0,0,1-2.12,6.87,14.12,14.12,0,0,1-6,4.79,21.32,21.32,0,0,1-8.86,1.74A24.1,24.1,0,0,1,145.24,74.31Z"/><path class="cls-1" d="M183.64,19a5.23,5.23,0,0,1-1.56-3.83,5.33,5.33,0,0,1,5.39-5.39,5,5,0,0,1,3.7,1.56,5.31,5.31,0,0,1,1.52,3.83A5.31,5.31,0,0,1,191.17,19a5,5,0,0,1-3.7,1.56A5.23,5.23,0,0,1,183.64,19ZM191,27.71v48h-8v-48Z"/><path class="cls-1" d="M242.57,32.13Q248,37.44,248,47.42V75.71h-8v-27q0-7.14-3.57-10.92T226.67,34q-6.27,0-10,3.91T213,49.35V75.71h-8v-48h8v6.83a15.78,15.78,0,0,1,6.43-5.69,20,20,0,0,1,9-2Q237.15,26.83,242.57,32.13Z"/><path class="cls-1" d="M260.61,38.61A21.54,21.54,0,0,1,268.74,30a22.12,22.12,0,0,1,11.52-3.07,21,21,0,0,1,10.87,2.72A18,18,0,0,1,298,36.47V27.71h8v48h-8V66.77a18.72,18.72,0,0,1-7,7,20.82,20.82,0,0,1-10.83,2.76,21.39,21.39,0,0,1-11.47-3.16,22,22,0,0,1-8.09-8.84,27.76,27.76,0,0,1-3-13A27.16,27.16,0,0,1,260.61,38.61Zm35.09,4a15.42,15.42,0,0,0-5.87-6.13,16.66,16.66,0,0,0-16.23,0,15.1,15.1,0,0,0-5.83,6.09A19.35,19.35,0,0,0,265.6,52a19.84,19.84,0,0,0,2.17,9.53,15.38,15.38,0,0,0,5.83,6.17,15.69,15.69,0,0,0,8.09,2.14,15.94,15.94,0,0,0,8.14-2.14,15.34,15.34,0,0,0,5.87-6.17,19.64,19.64,0,0,0,2.17-9.44A19.39,19.39,0,0,0,295.7,42.66Z"/><path class="cls-1" d="M334.08,30.66A21.38,21.38,0,0,1,345,27.93a22.82,22.82,0,0,1,11.65,3,21.5,21.5,0,0,1,8.22,8.53,26.4,26.4,0,0,1,3,12.78,27,27,0,0,1-3,12.83,21.9,21.9,0,0,1-8.22,8.75A22.4,22.4,0,0,1,345,77a21.36,21.36,0,0,1-10.86-2.72A19.68,19.68,0,0,1,327,67.43V98.71h-8v-70h8v8.75A18.87,18.87,0,0,1,334.08,30.66Zm23.3,11.92a15.06,15.06,0,0,0-5.87-6.09,16.21,16.21,0,0,0-8.14-2.09,15.8,15.8,0,0,0-8,2.13,15.55,15.55,0,0,0-5.92,6.18,19.09,19.09,0,0,0-2.22,9.35,19.31,19.31,0,0,0,2.22,9.44,15.64,15.64,0,0,0,14,8.31,15.94,15.94,0,0,0,8.14-2.14,15.34,15.34,0,0,0,5.87-6.17A19.84,19.84,0,0,0,359.56,52,19.35,19.35,0,0,0,357.38,42.58Z"/><path class="cls-1" d="M385.35,74.31a16.24,16.24,0,0,1-6.7-5.09,13.55,13.55,0,0,1-2.71-7.51h8a7.84,7.84,0,0,0,3.27,5.68,12.42,12.42,0,0,0,7.67,2.21,11.2,11.2,0,0,0,7-1.95,6,6,0,0,0,2.54-4.92,4.85,4.85,0,0,0-2.71-4.54,38,38,0,0,0-8.4-2.93,61.69,61.69,0,0,1-8.44-2.75,15.06,15.06,0,0,1-5.6-4.16,10.86,10.86,0,0,1-2.33-7.25A11,11,0,0,1,379,34.57a14.36,14.36,0,0,1,6-4.71,21.66,21.66,0,0,1,8.91-1.74q7.71,0,12.47,3.9a14.1,14.1,0,0,1,5.09,10.69h-7.72a8,8,0,0,0-2.93-5.85,10.9,10.9,0,0,0-7.16-2.21,11.1,11.1,0,0,0-6.62,1.78,5.52,5.52,0,0,0-2.46,4.67,5.11,5.11,0,0,0,1.48,3.77,11,11,0,0,0,3.74,2.38,63,63,0,0,0,6.23,2,68.88,68.88,0,0,1,8.14,2.67,14.26,14.26,0,0,1,5.39,4,10.54,10.54,0,0,1,2.33,6.87,11.81,11.81,0,0,1-2.12,6.87,14.18,14.18,0,0,1-6,4.79,21.36,21.36,0,0,1-8.86,1.74A24.15,24.15,0,0,1,385.35,74.31Z"/><path class="cls-1" d="M423.76,19a5.24,5.24,0,0,1-1.57-3.83,5.34,5.34,0,0,1,5.4-5.39,5,5,0,0,1,3.69,1.56,5.28,5.28,0,0,1,1.53,3.83A5.28,5.28,0,0,1,431.28,19a5,5,0,0,1-3.69,1.56A5.21,5.21,0,0,1,423.76,19ZM431,27.71v48h-8v-48Z"/><path class="cls-1" d="M452.17,74.31a16.24,16.24,0,0,1-6.7-5.09,13.49,13.49,0,0,1-2.72-7.51h8A7.84,7.84,0,0,0,454,67.39a12.43,12.43,0,0,0,7.68,2.21,11.14,11.14,0,0,0,6.95-1.95,6,6,0,0,0,2.55-4.92,4.85,4.85,0,0,0-2.72-4.54,38,38,0,0,0-8.4-2.93,61,61,0,0,1-8.43-2.75,15,15,0,0,1-5.6-4.16,10.82,10.82,0,0,1-2.34-7.25,10.94,10.94,0,0,1,2.13-6.53,14.36,14.36,0,0,1,6-4.71,21.65,21.65,0,0,1,8.9-1.74q7.72,0,12.47,3.9a14.07,14.07,0,0,1,5.09,10.69h-7.72a8,8,0,0,0-2.92-5.85,10.91,10.91,0,0,0-7.17-2.21,11.12,11.12,0,0,0-6.62,1.78,5.52,5.52,0,0,0-2.46,4.67,5.12,5.12,0,0,0,1.49,3.77,10.92,10.92,0,0,0,3.73,2.38,64.76,64.76,0,0,0,6.23,2A69.75,69.75,0,0,1,471,51.91a14.23,14.23,0,0,1,5.38,4,10.55,10.55,0,0,1,2.34,6.87,11.74,11.74,0,0,1-2.13,6.87,14.15,14.15,0,0,1-6,4.79,21.4,21.4,0,0,1-8.87,1.74A24.1,24.1,0,0,1,452.17,74.31Z"/><path class="cls-2" d="M91.73,46.52,62.52,29.66l-.09.18a8.68,8.68,0,0,1-.26,14.87l-3.31,1.91,2.55,1.47a6.5,6.5,0,0,1,0,11.25l-3.17,1.83,3.93,2.26a8.69,8.69,0,0,1,0,15.05l-.76.43a1.12,1.12,0,0,1,.05.13L91.73,61.57A8.69,8.69,0,0,0,91.73,46.52Z"/><path class="cls-3" d="M30,82.1V77.35L0,94.67v4.71A8.75,8.75,0,0,0,13.12,107L41.84,90.37A8.81,8.81,0,0,1,30,82.1Z"/><path class="cls-4" d="M62.11,63.49l-3.94-2.27L30,77.48V82.2a8.74,8.74,0,0,0,11.75,8.2L62.11,78.64A8.75,8.75,0,0,0,62.11,63.49Z"/><path class="cls-5" d="M30,26a8.81,8.81,0,0,1,11.64-8.34L13.12,1.18A8.75,8.75,0,0,0,0,8.76v4L30,30.07Z"/><path class="cls-6" d="M30,25.89v4.05L58.79,46.56l3.32-1.92a8.75,8.75,0,0,0,0-15.15L41.55,17.62A8.74,8.74,0,0,0,30,25.89Z"/><path class="cls-7" d="M0,42.71V65.43A8.74,8.74,0,0,0,13.12,73L30,63.26V44.88L13.12,35.14A8.74,8.74,0,0,0,0,42.71Z"/><polygon class="cls-8" points="30 44.95 30 63.19 45.79 54.07 30 44.95"/></g></g></svg>