<svg xmlns="http://www.w3.org/2000/svg" viewBox="0 0 478.77 108.14"><defs><style>.cls-1{fill:#4d4d4d;}.cls-2{fill:#ff4631;}.cls-3{fill:#2f5dfb;}.cls-4{fill:#1bb778;}.cls-5{fill:#feba2b;}.cls-6{fill:#ff7f2e;}.cls-7{fill:#fcee21;}.cls-8{fill:#29abe2;}</style></defs><g id="Capa_2" data-name="Capa 2"><g id="Capa_1-2" data-name="Capa 1"><path class="cls-1" d="M145.29,74.64a16.1,16.1,0,0,1-6.7-5.09A13.49,13.49,0,0,1,135.87,62h8a7.86,7.86,0,0,0,3.27,5.69,12.43,12.43,0,0,0,7.68,2.2,11.16,11.16,0,0,0,7-2,6,6,0,0,0,2.55-4.92,4.86,4.86,0,0,0-2.72-4.54,38,38,0,0,0-8.4-2.92,63,63,0,0,1-8.44-2.76,14.92,14.92,0,0,1-5.59-4.16,10.8,10.8,0,0,1-2.34-7.25,11,11,0,0,1,2.12-6.53,14.45,14.45,0,0,1,6-4.71,21.81,21.81,0,0,1,8.9-1.73q7.72,0,12.47,3.9A14,14,0,0,1,171.41,43h-7.72a8,8,0,0,0-2.92-5.85A10.93,10.93,0,0,0,153.6,35,11.05,11.05,0,0,0,147,36.77a5.5,5.5,0,0,0-2.46,4.66A5.12,5.12,0,0,0,146,45.21a10.75,10.75,0,0,0,3.73,2.37,63.42,63.42,0,0,0,6.23,2,66.15,66.15,0,0,1,8.15,2.67,14.2,14.2,0,0,1,5.38,3.94,10.51,10.51,0,0,1,2.33,6.87,11.69,11.69,0,0,1-2.12,6.87,14,14,0,0,1-6,4.79,21.32,21.32,0,0,1-8.86,1.74A23.93,23.93,0,0,1,145.29,74.64Z"/><path class="cls-1" d="M183.69,19a5.23,5.23,0,0,1-1.56-3.83,5.33,5.33,0,0,1,5.39-5.39,5,5,0,0,1,3.7,1.56,5.31,5.31,0,0,1,1.52,3.83A5.31,5.31,0,0,1,191.22,19a5,5,0,0,1-3.7,1.56A5.23,5.23,0,0,1,183.69,19ZM191,28V76h-8V28Z"/><path class="cls-1" d="M242.57,32.47Q248,37.77,248,47.75V76h-8v-27q0-7.12-3.57-10.91t-9.76-3.79a13.07,13.07,0,0,0-10,3.92Q213,42.21,213,49.68V76h-8V28h8v6.84a15.81,15.81,0,0,1,6.43-5.7,20,20,0,0,1,9-2Q237.15,27.17,242.57,32.47Z"/><path class="cls-1" d="M260.61,39a21.56,21.56,0,0,1,8.13-8.63,22.21,22.21,0,0,1,11.52-3.06A21,21,0,0,1,291.13,30,18.09,18.09,0,0,1,298,36.8V28h8V76h-8V67.11a18.77,18.77,0,0,1-7,7,20.82,20.82,0,0,1-10.83,2.76,21.47,21.47,0,0,1-11.47-3.15,22,22,0,0,1-8.09-8.85,27.69,27.69,0,0,1-3-13A27.13,27.13,0,0,1,260.61,39Zm35.14,3.71a15.42,15.42,0,0,0-5.87-6.13,16.66,16.66,0,0,0-16.23,0,15.1,15.1,0,0,0-5.83,6.09A19.35,19.35,0,0,0,265.65,52a19.84,19.84,0,0,0,2.17,9.53,15.38,15.38,0,0,0,5.83,6.17,15.69,15.69,0,0,0,8.09,2.14,15.94,15.94,0,0,0,8.14-2.14,15.34,15.34,0,0,0,5.87-6.17,19.64,19.64,0,0,0,2.17-9.44A19.39,19.39,0,0,0,295.75,42.66Z"/><path class="cls-1" d="M334.08,30A21.38,21.38,0,0,1,345,27.26a22.83,22.83,0,0,1,11.65,3,21.44,21.44,0,0,1,8.22,8.53,26.4,26.4,0,0,1,3,12.78,27,27,0,0,1-3,12.82,21.9,21.9,0,0,1-8.22,8.75A22.31,22.31,0,0,1,345,76.3a21.26,21.26,0,0,1-10.86-2.73,19.74,19.74,0,0,1-7.16-6.8V98h-8V28h8v8.75A18.94,18.94,0,0,1,334.08,30Zm23.35,12.59a15.06,15.06,0,0,0-5.87-6.09,16.21,16.21,0,0,0-8.14-2.09,15.8,15.8,0,0,0-8,2.13,15.55,15.55,0,0,0-5.92,6.18,19.09,19.09,0,0,0-2.22,9.35,19.31,19.31,0,0,0,2.22,9.44,15.64,15.64,0,0,0,14,8.31,15.94,15.94,0,0,0,8.14-2.14,15.34,15.34,0,0,0,5.87-6.17A19.84,19.84,0,0,0,359.61,52,19.35,19.35,0,0,0,357.43,42.58Z"/><path class="cls-1" d="M385.4,74.64a16.23,16.23,0,0,1-6.7-5.09A13.55,13.55,0,0,1,376,62h8a7.86,7.86,0,0,0,3.27,5.69,12.42,12.42,0,0,0,7.67,2.2,11.2,11.2,0,0,0,7-2,6,6,0,0,0,2.54-4.92,4.86,4.86,0,0,0-2.71-4.54,38,38,0,0,0-8.4-2.92,63,63,0,0,1-8.44-2.76,15,15,0,0,1-5.6-4.16,10.85,10.85,0,0,1-2.33-7.25A11,11,0,0,1,379,34.9a14.36,14.36,0,0,1,6-4.71A21.82,21.82,0,0,1,394,28.46q7.71,0,12.47,3.9A14.08,14.08,0,0,1,411.53,43h-7.72a8,8,0,0,0-2.93-5.85,10.9,10.9,0,0,0-7.16-2.2,11,11,0,0,0-6.62,1.78,5.5,5.5,0,0,0-2.46,4.66,5.12,5.12,0,0,0,1.48,3.78,10.8,10.8,0,0,0,3.74,2.37,62.54,62.54,0,0,0,6.23,2,65.36,65.36,0,0,1,8.14,2.67,14.23,14.23,0,0,1,5.39,3.94A10.56,10.56,0,0,1,412,63.06a11.76,11.76,0,0,1-2.12,6.87,14,14,0,0,1-6,4.79A21.36,21.36,0,0,1,395,76.46,24,24,0,0,1,385.4,74.64Z"/><path class="cls-1" d="M423.81,19a5.24,5.24,0,0,1-1.57-3.83,5.34,5.34,0,0,1,5.4-5.39,5,5,0,0,1,3.7,1.56,5.31,5.31,0,0,1,1.52,3.83A5.31,5.31,0,0,1,431.34,19a5,5,0,0,1-3.7,1.56A5.21,5.21,0,0,1,423.81,19ZM432,28V76h-8V28Z"/><path class="cls-1" d="M452.22,74.64a16.16,16.16,0,0,1-6.7-5.09A13.56,13.56,0,0,1,442.8,62h8A7.81,7.81,0,0,0,454,67.73a12.43,12.43,0,0,0,7.68,2.2,11.14,11.14,0,0,0,6.95-2,6,6,0,0,0,2.55-4.92,4.86,4.86,0,0,0-2.72-4.54,38.11,38.11,0,0,0-8.39-2.92,62.47,62.47,0,0,1-8.44-2.76,14.87,14.87,0,0,1-5.6-4.16,10.79,10.79,0,0,1-2.33-7.25,11,11,0,0,1,2.12-6.53,14.36,14.36,0,0,1,6-4.71,21.81,21.81,0,0,1,8.9-1.73q7.73,0,12.47,3.9A14,14,0,0,1,478.34,43h-7.72a8,8,0,0,0-2.92-5.85,10.91,10.91,0,0,0-7.17-2.2,11.05,11.05,0,0,0-6.62,1.78,5.5,5.5,0,0,0-2.46,4.66,5.12,5.12,0,0,0,1.49,3.78,10.75,10.75,0,0,0,3.73,2.37,64.33,64.33,0,0,0,6.23,2,66.15,66.15,0,0,1,8.15,2.67,14.2,14.2,0,0,1,5.38,3.94,10.57,10.57,0,0,1,2.34,6.87,11.76,11.76,0,0,1-2.12,6.87,14.09,14.09,0,0,1-6,4.79,21.4,21.4,0,0,1-8.87,1.74A23.93,23.93,0,0,1,452.22,74.64Z"/><path class="cls-2" d="M91.78,46.52,62.57,29.66l-.09.18a8.68,8.68,0,0,1-.26,14.87l-3.31,1.91,2.55,1.47a6.5,6.5,0,0,1,0,11.25l-3.17,1.83,3.93,2.26a8.69,8.69,0,0,1,0,15.05l-.76.43a1.12,1.12,0,0,1,0,.13L91.78,61.57A8.69,8.69,0,0,0,91.78,46.52Z"/><path class="cls-3" d="M30,82.1V77.35L0,94.67v4.71A8.75,8.75,0,0,0,13.12,107L41.84,90.37A8.81,8.81,0,0,1,30,82.1Z"/><path class="cls-4" d="M62.11,63.49l-3.94-2.27L30,77.48V82.2a8.74,8.74,0,0,0,11.75,8.2L62.11,78.64A8.75,8.75,0,0,0,62.11,63.49Z"/><path class="cls-5" d="M30,26a8.81,8.81,0,0,1,11.64-8.34L13.12,1.18A8.75,8.75,0,0,0,0,8.76v4L30,30.07Z"/><path class="cls-6" d="M30,25.89v4.05L58.79,46.56l3.32-1.92a8.75,8.75,0,0,0,0-15.15L41.55,17.62A8.74,8.74,0,0,0,30,25.89Z"/><path class="cls-7" d="M0,42.71V65.43A8.74,8.74,0,0,0,13.12,73L30,63.26V44.88L13.12,35.14A8.74,8.74,0,0,0,0,42.71Z"/><polygon class="cls-8" points="30 44.95 30 63.19 45.79 54.07 30 44.95"/></g></g></svg>